# xmcd
#
# Track frame offsets:
#	150
#	20851
#	38833
#	53006
#	65050
#	77989
#	95259
#	112071
#	127189
#	131066
#	142488
#
# Disc length: 2337 seconds
#
# Revision: 2
# Processed by: cddbd v1.4PL0 Copyright (c) Steve Scherf et al.
# Submitted via: CDmax 1.9
#
DISCID=ae091f0b
DTITLE=Bobby Bare Jr. - Young Criminals Starvation League
DYEAR=2002
DGENRE=Alt. Country
TTITLE0=I'll Be Around
TTITLE1=Flat Chested Girl from Maynardville
TTITLE2=Mehan
TTITLE3=Bullet Through my Teeth
TTITLE4=The Monk at the Disco
TTITLE5=Dig Down
TTITLE6=What Difference Does it Make
TTITLE7=The Ending
TTITLE8=Untitled
TTITLE9=Stay in Texas
TTITLE10=Painting her Fingernails
EXTD=
EXTT0=
EXTT1=
EXTT2=
EXTT3=
EXTT4=
EXTT5=
EXTT6=
EXTT7=
EXTT8=
EXTT9=
EXTT10=
PLAYORDER=
